<?xml version="1.0" encoding="UTF-8"?>
<svg id="Layer_2" data-name="Layer 2" xmlns="http://www.w3.org/2000/svg" viewBox="0 0 348.77 117.12">
  <defs>
    <style>
      .cls-1 {
        fill: none;
      }

      .cls-2 {
        fill: #32419a;
      }

      .cls-3 {
        fill: #406fb6;
      }

      .cls-4 {
        fill: #444545;
      }

      .cls-5 {
        fill: #2ac5f4;
      }
    </style>
  </defs>
  <g id="Layer_1-2" data-name="Layer 1">
    <g>
      <g>
        <path class="cls-4" d="M130.58,37.85c8.02,0,13.31,4.66,14.86,11.75h-4.85c-1.55-4.42-4.73-7.34-10.01-7.34-7.28,0-12.19,6.16-12.19,15.23s4.85,15.24,12.19,15.24c5.29,0,8.46-2.92,10.01-7.4h4.85c-1.55,7.15-6.9,11.82-14.86,11.82-9.64,0-17.1-7.77-17.1-19.65s7.46-19.65,17.1-19.65Z"/>
        <path class="cls-4" d="M167.15,77.15c-10.01,0-17.23-8.15-17.23-19.65s7.21-19.65,17.23-19.65,17.29,8.08,17.29,19.65-7.21,19.65-17.29,19.65Zm0-34.89c-7.34,0-12.31,6.28-12.31,15.23s4.97,15.24,12.31,15.24,12.37-6.28,12.37-15.24-4.97-15.23-12.37-15.23Z"/>
        <path class="cls-4" d="M196.18,60.42v16.17h-4.91V38.41h14.18c7.65,0,12.5,3.86,12.5,11.07,0,6.34-3.73,9.95-9.7,10.76l11.26,16.35h-5.6l-10.94-16.17h-6.78Zm0-4.17h9.14c5.04,0,7.77-2.55,7.77-6.78s-2.74-6.78-7.77-6.78h-9.14v13.56Z"/>
        <path class="cls-4" d="M230.51,76.59h-4.91V38.41h4.91v38.18Z"/>
        <path class="cls-4" d="M254.57,77.15c-10.01,0-17.23-8.15-17.23-19.65s7.21-19.65,17.23-19.65,17.29,8.08,17.29,19.65-7.21,19.65-17.29,19.65Zm0-34.89c-7.34,0-12.31,6.28-12.31,15.23s4.97,15.24,12.31,15.24,12.37-6.28,12.37-15.24-4.97-15.23-12.37-15.23Z"/>
        <path class="cls-4" d="M278.7,38.41h4.91v33.77h19.46v4.42h-24.38V38.41Z"/>
        <path class="cls-4" d="M314.95,76.59h-4.91V38.41h4.91v38.18Z"/>
        <path class="cls-4" d="M325.89,66.64c1.43,4.23,5.04,6.34,9.7,6.34,4.98,0,8.46-2.42,8.46-6.65,0-2.99-1.68-4.91-6.09-6.03l-6.84-1.8c-5.29-1.37-9.14-4.04-9.14-9.82,0-6.47,5.35-10.82,12.56-10.82,7.9,0,12.56,4.04,13.99,10.07h-4.91c-1.18-3.42-4.04-5.91-9.08-5.91-4.54,0-7.9,2.36-7.9,6.28,0,3.23,2.11,4.79,6.09,5.85l6.53,1.68c6.09,1.55,9.51,4.85,9.51,10.26,0,6.9-5.6,11.07-13.18,11.07s-13.24-3.79-14.68-10.51h4.98Z"/>
      </g>
      <g>
        <path class="cls-1" d="M37.72,84.05c14.06,0,25.49-11.44,25.49-25.49s-11.44-25.49-25.49-25.49-25.49,11.44-25.49,25.49,11.44,25.49,25.49,25.49Z"/>
        <path class="cls-3" d="M26.29,22.61C35.95,12.19,49.76,5.66,65.09,5.66c19.04,0,35.72,10.06,45.04,25.15C100.24,12.46,80.86,0,58.56,0,26.22,0,0,26.22,0,58.56,0,41.74,11.06,27.47,26.29,22.61Z"/>
        <path class="cls-3" d="M65.09,111.46c-15.34,0-29.14-6.53-38.8-16.96C11.06,89.65,0,75.38,0,58.56c0,32.34,26.22,58.56,58.56,58.56,22.3,0,41.68-12.46,51.57-30.8-9.32,15.09-26,25.15-45.04,25.15Z"/>
        <path class="cls-5" d="M26.29,94.51c3.61,1.15,7.45,1.78,11.43,1.78,20.8,0,37.72-16.92,37.72-37.72S58.52,20.84,37.72,20.84c-3.98,0-7.82,.63-11.43,1.78-8.75,9.44-14.1,22.06-14.1,35.95s5.35,26.51,14.1,35.95Zm11.43-61.44c14.06,0,25.49,11.44,25.49,25.49s-11.44,25.49-25.49,25.49-25.49-11.44-25.49-25.49,11.44-25.49,25.49-25.49Z"/>
        <path class="cls-2" d="M26.29,94.51c-8.75-9.44-14.1-22.06-14.1-35.95s5.35-26.51,14.1-35.95C11.06,27.47,0,41.74,0,58.56s11.06,31.09,26.29,35.95Z"/>
      </g>
    </g>
  </g>
</svg>