<svg xmlns="http://www.w3.org/2000/svg" xmlns:xlink="http://www.w3.org/1999/xlink" xmlns:lucid="lucid" width="640" height="500"><g transform="translate(-200 -120)" lucid:page-tab-id="0_0"><path d="M0 0h1760v1360H0z" fill="#fff"/><path d="M330 510v-10h150v90h-10v-80H330z" stroke="#000" stroke-width="2" fill="#fff"/><path d="M320 510h150v90H320z" stroke="#000" stroke-width="2" fill="#fff"/><use xlink:href="#a" transform="matrix(1,0,0,1,320,510) translate(41.05499999999999 55.025)"/><path d="M670 510v-10h150v90h-10v-80H670z" stroke="#000" stroke-width="2" fill="#fff"/><path d="M660 510h150v90H660z" stroke="#000" stroke-width="2" fill="#fff"/><use xlink:href="#b" transform="matrix(1,0,0,1,660,510) translate(33.12999999999999 55.025)"/><path d="M508 140h232v80H508z" stroke="#000" stroke-width="2" fill="#fff"/><use xlink:href="#c" transform="matrix(1,0,0,1,516,148) translate(20.075000000000003 35.6)"/><path d="M260 339h180v80H260z" stroke="#000" stroke-width="2" fill="#fff"/><use xlink:href="#d" transform="matrix(1,0,0,1,268,347.00000000000006) translate(24.574999999999996 35.6)"/><path d="M600 339h180v80H600z" stroke="#000" stroke-width="2" fill="#fff"/><use xlink:href="#e" transform="matrix(1,0,0,1,608,347.00000000000006) translate(25.64999999999999 35.6)"/><path d="M482.52 180H402" stroke="#000" stroke-width="2" fill="none"/><path d="M505.04 180l-21.52 12.73v-25.46z" stroke="#000" stroke-width="2" fill="#fff"/><path d="M402.03 181H401v-2h1.03z"/><path d="M220 140h180v80H220z" stroke="#000" stroke-width="2" fill="#fff"/><use xlink:href="#f" transform="matrix(1,0,0,1,228,148) translate(52.125 35.6)"/><path d="M690 421v38.5h50v8.75" stroke="#000" stroke-width="2" fill="none"/><path d="M691 421.03h-2V420h2z"/><path d="M740 497.6l-14.85-14.86L740 467.6l14.85 15.14z" stroke="#000" stroke-width="2" fill="#fff"/><use xlink:href="#g" transform="matrix(1,0,0,1,655,422.31172695341064) translate(0 14.4)"/><use xlink:href="#h" transform="matrix(1,0,0,1,748,455.3040303031842) translate(0 14.4)"/><path d="M350 421v38.5h50v8.75" stroke="#000" stroke-width="2" fill="none"/><path d="M351 421.03h-2V420h2z"/><path d="M400 497.6l-14.85-14.86L400 467.6l14.85 15.14z" stroke="#000" stroke-width="2"/><use xlink:href="#g" transform="matrix(1,0,0,1,315,420.90779915129264) translate(0 14.4)"/><use xlink:href="#h" transform="matrix(1,0,0,1,408,456.0059942042432) translate(0 14.4)"/><path d="M624 222v57.5H350v27.75" stroke="#000" stroke-width="2" fill="none"/><path d="M625 222.03h-2V221h2z"/><path d="M350 336.6l-14.85-14.86L350 306.6l14.85 15.14z" stroke="#000" stroke-width="2" fill="#fff"/><use xlink:href="#i" transform="matrix(1,0,0,1,606,230.23129708647804) translate(0 14.4)"/><use xlink:href="#i" transform="matrix(1,0,0,1,358,285.38877777640516) translate(0 14.4)"/><path d="M624 222v57.5h66v27.75" stroke="#000" stroke-width="2" fill="none"/><path d="M625 222.03h-2V221h2z"/><path d="M690 336.6l-14.85-14.86L690 306.6l14.85 15.14z" stroke="#000" stroke-width="2" fill="#fff"/><use xlink:href="#h" transform="matrix(1,0,0,1,698,284.7268023458442) translate(0 14.4)"/><defs><path d="M240 0l2-218c-23 76-54 145-80 218h-23L58-218 59 0H30v-248h44l77 211c21-75 51-140 76-211h43V0h-30" id="j"/><path d="M100-194c62-1 85 37 85 99 1 63-27 99-86 99S16-35 15-95c0-66 28-99 85-99zM99-20c44 1 53-31 53-75 0-43-8-75-51-75s-53 32-53 75 10 74 51 75" id="k"/><path d="M85-194c31 0 48 13 60 33l-1-100h32l1 261h-30c-2-10 0-23-3-31C134-8 116 4 85 4 32 4 16-35 15-94c0-66 23-100 70-100zm9 24c-40 0-46 34-46 75 0 40 6 74 45 74 42 0 51-32 51-76 0-42-9-74-50-73" id="l"/><path d="M84 4C-5 8 30-112 23-190h32v120c0 31 7 50 39 49 72-2 45-101 50-169h31l1 190h-30c-1-10 1-25-2-33-11 22-28 36-60 37" id="m"/><path d="M24 0v-261h32V0H24" id="n"/><path d="M100-194c63 0 86 42 84 106H49c0 40 14 67 53 68 26 1 43-12 49-29l28 8c-11 28-37 45-77 45C44 4 14-33 15-96c1-61 26-98 85-98zm52 81c6-60-76-77-97-28-3 7-6 17-6 28h103" id="o"/><path d="M135-143c-3-34-86-38-87 0 15 53 115 12 119 90S17 21 10-45l28-5c4 36 97 45 98 0-10-56-113-15-118-90-4-57 82-63 122-42 12 7 21 19 24 35" id="p"/><g id="a"><use transform="matrix(0.05,0,0,0.05,0,0)" xlink:href="#j"/><use transform="matrix(0.05,0,0,0.05,14.950000000000001,0)" xlink:href="#k"/><use transform="matrix(0.05,0,0,0.05,24.950000000000003,0)" xlink:href="#l"/><use transform="matrix(0.05,0,0,0.05,34.95,0)" xlink:href="#m"/><use transform="matrix(0.05,0,0,0.05,44.95,0)" xlink:href="#n"/><use transform="matrix(0.05,0,0,0.05,48.900000000000006,0)" xlink:href="#o"/><use transform="matrix(0.05,0,0,0.05,58.900000000000006,0)" xlink:href="#p"/></g><path d="M185-189c-5-48-123-54-124 2 14 75 158 14 163 119 3 78-121 87-175 55-17-10-28-26-33-46l33-7c5 56 141 63 141-1 0-78-155-14-162-118-5-82 145-84 179-34 5 7 8 16 11 25" id="q"/><path d="M114-163C36-179 61-72 57 0H25l-1-190h30c1 12-1 29 2 39 6-27 23-49 58-41v29" id="r"/><path d="M24-231v-30h32v30H24zM24 0v-190h32V0H24" id="s"/><path d="M141-36C126-15 110 5 73 4 37 3 15-17 15-53c-1-64 63-63 125-63 3-35-9-54-41-54-24 1-41 7-42 31l-33-3c5-37 33-52 76-52 45 0 72 20 72 64v82c-1 20 7 32 28 27v20c-31 9-61-2-59-35zM48-53c0 20 12 33 32 33 41-3 63-29 60-74-43 2-92-5-92 41" id="t"/><path d="M9 0v-24l116-142H16v-24h144v24L44-24h123V0H9" id="u"/><g id="b"><use transform="matrix(0.05,0,0,0.05,0,0)" xlink:href="#q"/><use transform="matrix(0.05,0,0,0.05,12,0)" xlink:href="#o"/><use transform="matrix(0.05,0,0,0.05,22,0)" xlink:href="#r"/><use transform="matrix(0.05,0,0,0.05,27.950000000000003,0)" xlink:href="#s"/><use transform="matrix(0.05,0,0,0.05,31.899999999999995,0)" xlink:href="#t"/><use transform="matrix(0.05,0,0,0.05,41.9,0)" xlink:href="#n"/><use transform="matrix(0.05,0,0,0.05,45.85,0)" xlink:href="#s"/><use transform="matrix(0.05,0,0,0.05,49.800000000000004,0)" xlink:href="#u"/><use transform="matrix(0.05,0,0,0.05,58.800000000000004,0)" xlink:href="#o"/><use transform="matrix(0.05,0,0,0.05,68.80000000000001,0)" xlink:href="#r"/><use transform="matrix(0.05,0,0,0.05,74.75000000000001,0)" xlink:href="#p"/></g><path d="M30-248c87 1 191-15 191 75 0 78-77 80-158 76V0H30v-248zm33 125c57 0 124 11 124-50 0-59-68-47-124-48v98" id="v"/><path d="M59-47c-2 24 18 29 38 22v24C64 9 27 4 27-40v-127H5v-23h24l9-43h21v43h35v23H59v120" id="w"/><path d="M177-190C167-65 218 103 67 71c-23-6-38-20-44-43l32-5c15 47 100 32 89-28v-30C133-14 115 1 83 1 29 1 15-40 15-95c0-56 16-97 71-98 29-1 48 16 59 35 1-10 0-23 2-32h30zM94-22c36 0 50-32 50-73 0-42-14-75-50-75-39 0-46 34-46 75s6 73 46 73" id="x"/><path d="M212-179c-10-28-35-45-73-45-59 0-87 40-87 99 0 60 29 101 89 101 43 0 62-24 78-52l27 14C228-24 195 4 139 4 59 4 22-46 18-125c-6-104 99-153 187-111 19 9 31 26 39 46" id="y"/><path d="M106-169C34-169 62-67 57 0H25v-261h32l-1 103c12-21 28-36 61-36 89 0 53 116 60 194h-32v-121c2-32-8-49-39-48" id="z"/><path d="M117-194c89-4 53 116 60 194h-32v-121c0-31-8-49-39-48C34-167 62-67 57 0H25l-1-190h30c1 10-1 24 2 32 11-22 29-35 61-36" id="A"/><g id="c"><use transform="matrix(0.05,0,0,0.05,0,0)" xlink:href="#v"/><use transform="matrix(0.05,0,0,0.05,12,0)" xlink:href="#k"/><use transform="matrix(0.05,0,0,0.05,22,0)" xlink:href="#p"/><use transform="matrix(0.05,0,0,0.05,31,0)" xlink:href="#w"/><use transform="matrix(0.05,0,0,0.05,36,0)" xlink:href="#j"/><use transform="matrix(0.05,0,0,0.05,50.95,0)" xlink:href="#o"/><use transform="matrix(0.05,0,0,0.05,60.95,0)" xlink:href="#p"/><use transform="matrix(0.05,0,0,0.05,69.95,0)" xlink:href="#p"/><use transform="matrix(0.05,0,0,0.05,78.95,0)" xlink:href="#t"/><use transform="matrix(0.05,0,0,0.05,88.95,0)" xlink:href="#x"/><use transform="matrix(0.05,0,0,0.05,98.95,0)" xlink:href="#o"/><use transform="matrix(0.05,0,0,0.05,108.95,0)" xlink:href="#y"/><use transform="matrix(0.05,0,0,0.05,121.9,0)" xlink:href="#z"/><use transform="matrix(0.05,0,0,0.05,131.9,0)" xlink:href="#t"/><use transform="matrix(0.05,0,0,0.05,141.9,0)" xlink:href="#A"/><use transform="matrix(0.05,0,0,0.05,151.9,0)" xlink:href="#A"/><use transform="matrix(0.05,0,0,0.05,161.9,0)" xlink:href="#o"/><use transform="matrix(0.05,0,0,0.05,171.9,0)" xlink:href="#n"/></g><path d="M30 0v-248h33v221h125V0H30" id="B"/><g id="d"><use transform="matrix(0.05,0,0,0.05,0,0)" xlink:href="#j"/><use transform="matrix(0.05,0,0,0.05,14.950000000000001,0)" xlink:href="#k"/><use transform="matrix(0.05,0,0,0.05,24.950000000000003,0)" xlink:href="#l"/><use transform="matrix(0.05,0,0,0.05,34.95,0)" xlink:href="#m"/><use transform="matrix(0.05,0,0,0.05,44.95,0)" xlink:href="#n"/><use transform="matrix(0.05,0,0,0.05,48.900000000000006,0)" xlink:href="#o"/><use transform="matrix(0.05,0,0,0.05,58.900000000000006,0)" xlink:href="#B"/><use transform="matrix(0.05,0,0,0.05,68.9,0)" xlink:href="#k"/><use transform="matrix(0.05,0,0,0.05,78.9,0)" xlink:href="#t"/><use transform="matrix(0.05,0,0,0.05,88.9,0)" xlink:href="#l"/><use transform="matrix(0.05,0,0,0.05,98.9,0)" xlink:href="#o"/><use transform="matrix(0.05,0,0,0.05,108.9,0)" xlink:href="#r"/></g><path d="M30-248c118-7 216 8 213 122C240-48 200 0 122 0H30v-248zM63-27c89 8 146-16 146-99s-60-101-146-95v194" id="C"/><g id="e"><use transform="matrix(0.05,0,0,0.05,0,0)" xlink:href="#C"/><use transform="matrix(0.05,0,0,0.05,12.950000000000001,0)" xlink:href="#t"/><use transform="matrix(0.05,0,0,0.05,22.950000000000003,0)" xlink:href="#w"/><use transform="matrix(0.05,0,0,0.05,27.950000000000003,0)" xlink:href="#t"/><use transform="matrix(0.05,0,0,0.05,37.95,0)" xlink:href="#q"/><use transform="matrix(0.05,0,0,0.05,49.95,0)" xlink:href="#o"/><use transform="matrix(0.05,0,0,0.05,59.95,0)" xlink:href="#r"/><use transform="matrix(0.05,0,0,0.05,65.9,0)" xlink:href="#s"/><use transform="matrix(0.05,0,0,0.05,69.85000000000001,0)" xlink:href="#t"/><use transform="matrix(0.05,0,0,0.05,79.85000000000001,0)" xlink:href="#n"/><use transform="matrix(0.05,0,0,0.05,83.80000000000001,0)" xlink:href="#s"/><use transform="matrix(0.05,0,0,0.05,87.75000000000001,0)" xlink:href="#u"/><use transform="matrix(0.05,0,0,0.05,96.75000000000001,0)" xlink:href="#o"/><use transform="matrix(0.05,0,0,0.05,106.75,0)" xlink:href="#r"/></g><g id="f"><use transform="matrix(0.05,0,0,0.05,0,0)" xlink:href="#y"/><use transform="matrix(0.05,0,0,0.05,12.950000000000001,0)" xlink:href="#k"/><use transform="matrix(0.05,0,0,0.05,22.950000000000003,0)" xlink:href="#r"/><use transform="matrix(0.05,0,0,0.05,28.900000000000002,0)" xlink:href="#s"/><use transform="matrix(0.05,0,0,0.05,32.85,0)" xlink:href="#k"/><use transform="matrix(0.05,0,0,0.05,42.85,0)" xlink:href="#n"/><use transform="matrix(0.05,0,0,0.05,46.800000000000004,0)" xlink:href="#s"/><use transform="matrix(0.05,0,0,0.05,50.75000000000001,0)" xlink:href="#p"/></g><path d="M101-251c68 0 85 55 85 127S166 4 100 4C33 4 14-52 14-124c0-73 17-127 87-127zm-1 229c47 0 54-49 54-102s-4-102-53-102c-51 0-55 48-55 102 0 53 5 102 54 102" id="D"/><path d="M33 0v-38h34V0H33" id="E"/><path d="M80-196l47-18 7 23-49 13 32 44-20 13-27-46-27 45-21-12 33-44-49-13 8-23 47 19-2-53h23" id="F"/><g id="g"><use transform="matrix(0.05,0,0,0.05,0,0)" xlink:href="#D"/><use transform="matrix(0.05,0,0,0.05,10,0)" xlink:href="#E"/><use transform="matrix(0.05,0,0,0.05,15,0)" xlink:href="#E"/><use transform="matrix(0.05,0,0,0.05,20,0)" xlink:href="#F"/></g><path d="M27 0v-27h64v-190l-56 39v-29l58-41h29v221h61V0H27" id="G"/><use transform="matrix(0.05,0,0,0.05,0,0)" xlink:href="#G" id="h"/><use transform="matrix(0.05,0,0,0.05,0,0)" xlink:href="#G" id="i"/></defs></g></svg>