<?xml version="1.0" encoding="UTF-8" standalone="no"?>
<!DOCTYPE svg PUBLIC "-//W3C//DTD SVG 1.1//EN"
 "http://www.w3.org/Graphics/SVG/1.1/DTD/svg11.dtd">
<!-- Generated by graphviz version 2.40.1 (20161225.0304)
 -->
<!-- Title: dependency&#45;cruiser output Pages: 1 -->
<svg width="716pt" height="541pt"
 viewBox="0.00 0.00 716.00 540.55" xmlns="http://www.w3.org/2000/svg" xmlns:xlink="http://www.w3.org/1999/xlink">
<g id="graph0" class="graph" transform="scale(1 1) rotate(0) translate(4 536.5463)">
<title>dependency&#45;cruiser output</title>
<polygon fill="#ffffff" stroke="transparent" points="-4,4 -4,-536.5463 712,-536.5463 712,4 -4,4"/>
<g id="clust1" class="cluster">
<title>cluster_node_modules</title>
<path fill="#ffffff" stroke="#000000" stroke-width="2" d="M625,-80.5463C625,-80.5463 688,-80.5463 688,-80.5463 694,-80.5463 700,-86.5463 700,-92.5463 700,-92.5463 700,-120.5463 700,-120.5463 700,-126.5463 694,-132.5463 688,-132.5463 688,-132.5463 625,-132.5463 625,-132.5463 619,-132.5463 613,-126.5463 613,-120.5463 613,-120.5463 613,-92.5463 613,-92.5463 613,-86.5463 619,-80.5463 625,-80.5463"/>
<text text-anchor="middle" x="656.5" y="-121.3463" font-family="Helvetica,sans-Serif" font-weight="bold" font-size="9.00" fill="#000000">node_modules</text>
</g>
<g id="clust2" class="cluster">
<title>cluster_src</title>
<path fill="#ffffff" stroke="#000000" stroke-width="2" d="M20,-8.5463C20,-8.5463 593,-8.5463 593,-8.5463 599,-8.5463 605,-14.5463 605,-20.5463 605,-20.5463 605,-512.5463 605,-512.5463 605,-518.5463 599,-524.5463 593,-524.5463 593,-524.5463 20,-524.5463 20,-524.5463 14,-524.5463 8,-518.5463 8,-512.5463 8,-512.5463 8,-20.5463 8,-20.5463 8,-14.5463 14,-8.5463 20,-8.5463"/>
<text text-anchor="middle" x="306.5" y="-513.3463" font-family="Helvetica,sans-Serif" font-weight="bold" font-size="9.00" fill="#000000">src</text>
</g>
<g id="clust3" class="cluster">
<title>cluster_src/module</title>
<path fill="#ffffff" stroke="#000000" stroke-width="2" d="M173,-36.5463C173,-36.5463 374,-36.5463 374,-36.5463 380,-36.5463 386,-42.5463 386,-48.5463 386,-48.5463 386,-166.5463 386,-166.5463 386,-172.5463 380,-178.5463 374,-178.5463 374,-178.5463 173,-178.5463 173,-178.5463 167,-178.5463 161,-172.5463 161,-166.5463 161,-166.5463 161,-48.5463 161,-48.5463 161,-42.5463 167,-36.5463 173,-36.5463"/>
<text text-anchor="middle" x="273.5" y="-167.3463" font-family="Helvetica,sans-Serif" font-weight="bold" font-size="9.00" fill="#000000">module</text>
</g>
<g id="clust4" class="cluster">
<title>cluster_src/serializer</title>
<path fill="#ffffff" stroke="#000000" stroke-width="2" d="M159,-210.5463C159,-210.5463 276,-210.5463 276,-210.5463 282,-210.5463 288,-216.5463 288,-222.5463 288,-222.5463 288,-460.5463 288,-460.5463 288,-466.5463 282,-472.5463 276,-472.5463 276,-472.5463 159,-472.5463 159,-472.5463 153,-472.5463 147,-466.5463 147,-460.5463 147,-460.5463 147,-222.5463 147,-222.5463 147,-216.5463 153,-210.5463 159,-210.5463"/>
<text text-anchor="middle" x="217.5" y="-461.3463" font-family="Helvetica,sans-Serif" font-weight="bold" font-size="9.00" fill="#000000">serializer</text>
</g>
<!-- node_modules/eventemitter3 -->
<g id="node1" class="node">
<title>node_modules/eventemitter3</title>
<g id="a_node1"><a xlink:href="node_modules/eventemitter3" xlink:title="eventemitter3">
<polygon fill="#c40b0a" fill-opacity="0.101961" stroke="#000000" points="692,-106.5463 623,-106.5463 621,-104.5463 621,-88.5463 690,-88.5463 692,-90.5463 692,-106.5463"/>
<polyline fill="none" stroke="#000000" points="690,-104.5463 621,-104.5463 "/>
<polyline fill="none" stroke="#000000" points="690,-104.5463 690,-88.5463 "/>
<polyline fill="none" stroke="#000000" points="690,-104.5463 692,-106.5463 "/>
<text text-anchor="middle" x="656.5" y="-95.3463" font-family="Helvetica,sans-Serif" font-size="9.00" fill="#c40b0a">eventemitter3</text>
</a>
</g>
</g>
<!-- src/Coriolis.ts -->
<g id="node2" class="node">
<title>src/Coriolis.ts</title>
<g id="a_node2"><a xlink:href="src/Coriolis.ts" xlink:title="Coriolis.ts">
<path fill="#ddfeff" stroke="#000000" d="M133,-236.5463C133,-236.5463 89,-236.5463 89,-236.5463 86,-236.5463 83,-233.5463 83,-230.5463 83,-230.5463 83,-224.5463 83,-224.5463 83,-221.5463 86,-218.5463 89,-218.5463 89,-218.5463 133,-218.5463 133,-218.5463 136,-218.5463 139,-221.5463 139,-224.5463 139,-224.5463 139,-230.5463 139,-230.5463 139,-233.5463 136,-236.5463 133,-236.5463"/>
<text text-anchor="middle" x="111" y="-225.3463" font-family="Helvetica,sans-Serif" font-size="9.00" fill="#000000">Coriolis.ts</text>
</a>
</g>
</g>
<!-- src/DataSerializer.ts -->
<g id="node3" class="node">
<title>src/DataSerializer.ts</title>
<g id="a_node3"><a xlink:href="src/DataSerializer.ts" xlink:title="DataSerializer.ts">
<path fill="#ddfeff" stroke="#000000" d="M253,-498.5463C253,-498.5463 182,-498.5463 182,-498.5463 179,-498.5463 176,-495.5463 176,-492.5463 176,-492.5463 176,-486.5463 176,-486.5463 176,-483.5463 179,-480.5463 182,-480.5463 182,-480.5463 253,-480.5463 253,-480.5463 256,-480.5463 259,-483.5463 259,-486.5463 259,-486.5463 259,-492.5463 259,-492.5463 259,-495.5463 256,-498.5463 253,-498.5463"/>
<text text-anchor="middle" x="217.5" y="-487.3463" font-family="Helvetica,sans-Serif" font-size="9.00" fill="#000000">DataSerializer.ts</text>
</a>
</g>
</g>
<!-- src/Coriolis.ts&#45;&gt;src/DataSerializer.ts -->
<g id="edge1" class="edge">
<title>src/Coriolis.ts&#45;&gt;src/DataSerializer.ts</title>
<path fill="none" stroke="#000000" stroke-width="2" stroke-opacity="0.200000" d="M111.7146,-236.7946C115.11,-279.6739 130.1499,-457.7986 147,-475.5463 153.0734,-481.9432 161.168,-485.8749 169.7045,-488.215"/>
<polygon fill="#000000" fill-opacity="0.200000" stroke="#000000" stroke-width="2" stroke-opacity="0.200000" points="169.3469,-490.2876 175.6656,-489.5915 170.2919,-486.1953 169.3469,-490.2876"/>
</g>
<!-- src/module/ContentModule.ts -->
<g id="node4" class="node">
<title>src/module/ContentModule.ts</title>
<g id="a_node4"><a xlink:href="src/module/ContentModule.ts" xlink:title="ContentModule.ts">
<path fill="#ccffcc" stroke="#000000" d="M255,-92.5463C255,-92.5463 180,-92.5463 180,-92.5463 177,-92.5463 174,-89.5463 174,-86.5463 174,-86.5463 174,-80.5463 174,-80.5463 174,-77.5463 177,-74.5463 180,-74.5463 180,-74.5463 255,-74.5463 255,-74.5463 258,-74.5463 261,-77.5463 261,-80.5463 261,-80.5463 261,-86.5463 261,-86.5463 261,-89.5463 258,-92.5463 255,-92.5463"/>
<text text-anchor="middle" x="217.5" y="-81.3463" font-family="Helvetica,sans-Serif" font-size="9.00" fill="#000000">ContentModule.ts</text>
</a>
</g>
</g>
<!-- src/Coriolis.ts&#45;&gt;src/module/ContentModule.ts -->
<g id="edge2" class="edge">
<title>src/Coriolis.ts&#45;&gt;src/module/ContentModule.ts</title>
<path fill="none" stroke="#000000" stroke-width="2" stroke-opacity="0.200000" d="M112.3457,-218.167C116.3803,-191.3592 129.2056,-115.2618 147,-98.5463 152.8144,-93.0845 160.1048,-89.4127 167.7756,-86.9781"/>
<polygon fill="#000000" fill-opacity="0.200000" stroke="#000000" stroke-width="2" stroke-opacity="0.200000" points="168.4698,-88.9652 173.6975,-85.3484 167.3553,-84.9158 168.4698,-88.9652"/>
</g>
<!-- src/module/EventModule.ts -->
<g id="node5" class="node">
<title>src/module/EventModule.ts</title>
<g id="a_node5"><a xlink:href="src/module/EventModule.ts" xlink:title="EventModule.ts">
<path fill="#ccffcc" stroke="#000000" d="M371.5,-62.5463C371.5,-62.5463 304.5,-62.5463 304.5,-62.5463 301.5,-62.5463 298.5,-59.5463 298.5,-56.5463 298.5,-56.5463 298.5,-50.5463 298.5,-50.5463 298.5,-47.5463 301.5,-44.5463 304.5,-44.5463 304.5,-44.5463 371.5,-44.5463 371.5,-44.5463 374.5,-44.5463 377.5,-47.5463 377.5,-50.5463 377.5,-50.5463 377.5,-56.5463 377.5,-56.5463 377.5,-59.5463 374.5,-62.5463 371.5,-62.5463"/>
<text text-anchor="middle" x="338" y="-51.3463" font-family="Helvetica,sans-Serif" font-size="9.00" fill="#000000">EventModule.ts</text>
</a>
</g>
</g>
<!-- src/Coriolis.ts&#45;&gt;src/module/EventModule.ts -->
<g id="edge3" class="edge">
<title>src/Coriolis.ts&#45;&gt;src/module/EventModule.ts</title>
<path fill="none" stroke="#000000" stroke-width="2" stroke-opacity="0.200000" d="M111.12,-218.5383C111.8095,-182.3444 116.4215,-48.2228 147,-22.5463 194.9914,17.7517 227.7307,-5.3788 288,-22.5463 300.5978,-26.1348 313.1221,-33.9081 322.4847,-40.7726"/>
<polygon fill="#000000" fill-opacity="0.200000" stroke="#000000" stroke-width="2" stroke-opacity="0.200000" points="321.2928,-42.5043 327.3413,-44.4603 323.8328,-39.1593 321.2928,-42.5043"/>
</g>
<!-- src/module/LoaderUtilModule.ts -->
<g id="node6" class="node">
<title>src/module/LoaderUtilModule.ts</title>
<g id="a_node6"><a xlink:href="src/module/LoaderUtilModule.ts" xlink:title="LoaderUtilModule.ts">
<path fill="#ccffcc" stroke="#000000" d="M260,-122.5463C260,-122.5463 175,-122.5463 175,-122.5463 172,-122.5463 169,-119.5463 169,-116.5463 169,-116.5463 169,-110.5463 169,-110.5463 169,-107.5463 172,-104.5463 175,-104.5463 175,-104.5463 260,-104.5463 260,-104.5463 263,-104.5463 266,-107.5463 266,-110.5463 266,-110.5463 266,-116.5463 266,-116.5463 266,-119.5463 263,-122.5463 260,-122.5463"/>
<text text-anchor="middle" x="217.5" y="-111.3463" font-family="Helvetica,sans-Serif" font-size="9.00" fill="#000000">LoaderUtilModule.ts</text>
</a>
</g>
</g>
<!-- src/Coriolis.ts&#45;&gt;src/module/LoaderUtilModule.ts -->
<g id="edge4" class="edge">
<title>src/Coriolis.ts&#45;&gt;src/module/LoaderUtilModule.ts</title>
<path fill="none" stroke="#000000" stroke-width="2" stroke-opacity="0.200000" d="M111.4988,-218.2632C113.0838,-198.5365 119.6768,-152.3099 147,-128.5463 151.6738,-124.4814 157.176,-121.4276 163.0115,-119.146"/>
<polygon fill="#000000" fill-opacity="0.200000" stroke="#000000" stroke-width="2" stroke-opacity="0.200000" points="163.9456,-121.0458 168.9398,-117.1128 162.583,-117.0729 163.9456,-121.0458"/>
</g>
<!-- src/module/PluginModule.ts -->
<g id="node7" class="node">
<title>src/module/PluginModule.ts</title>
<g id="a_node7"><a xlink:href="src/module/PluginModule.ts" xlink:title="PluginModule.ts">
<path fill="#ccffcc" stroke="#000000" d="M252,-152.5463C252,-152.5463 183,-152.5463 183,-152.5463 180,-152.5463 177,-149.5463 177,-146.5463 177,-146.5463 177,-140.5463 177,-140.5463 177,-137.5463 180,-134.5463 183,-134.5463 183,-134.5463 252,-134.5463 252,-134.5463 255,-134.5463 258,-137.5463 258,-140.5463 258,-140.5463 258,-146.5463 258,-146.5463 258,-149.5463 255,-152.5463 252,-152.5463"/>
<text text-anchor="middle" x="217.5" y="-141.3463" font-family="Helvetica,sans-Serif" font-size="9.00" fill="#000000">PluginModule.ts</text>
</a>
</g>
</g>
<!-- src/Coriolis.ts&#45;&gt;src/module/PluginModule.ts -->
<g id="edge5" class="edge">
<title>src/Coriolis.ts&#45;&gt;src/module/PluginModule.ts</title>
<path fill="none" stroke="#000000" stroke-width="2" stroke-opacity="0.200000" d="M112.8658,-218.472C116.5296,-203.1017 126.1899,-172.1032 147,-156.5463 153.9654,-151.3392 162.3808,-148.0062 170.9356,-145.912"/>
<polygon fill="#000000" fill-opacity="0.200000" stroke="#000000" stroke-width="2" stroke-opacity="0.200000" points="171.4318,-147.9536 176.8643,-144.6524 170.5589,-143.8453 171.4318,-147.9536"/>
</g>
<!-- src/module/QueryModule.ts -->
<g id="node8" class="node">
<title>src/module/QueryModule.ts</title>
<g id="a_node8"><a xlink:href="src/module/QueryModule.ts" xlink:title="QueryModule.ts">
<path fill="#ccffcc" stroke="#000000" d="M372,-92.5463C372,-92.5463 304,-92.5463 304,-92.5463 301,-92.5463 298,-89.5463 298,-86.5463 298,-86.5463 298,-80.5463 298,-80.5463 298,-77.5463 301,-74.5463 304,-74.5463 304,-74.5463 372,-74.5463 372,-74.5463 375,-74.5463 378,-77.5463 378,-80.5463 378,-80.5463 378,-86.5463 378,-86.5463 378,-89.5463 375,-92.5463 372,-92.5463"/>
<text text-anchor="middle" x="338" y="-81.3463" font-family="Helvetica,sans-Serif" font-size="9.00" fill="#000000">QueryModule.ts</text>
</a>
</g>
</g>
<!-- src/Coriolis.ts&#45;&gt;src/module/QueryModule.ts -->
<g id="edge6" class="edge">
<title>src/Coriolis.ts&#45;&gt;src/module/QueryModule.ts</title>
<path fill="none" stroke="#000000" stroke-width="2" stroke-opacity="0.200000" d="M111.2728,-218.3046C112.5088,-183.6019 118.8212,-61.8644 147,-38.5463 171.14,-18.5704 263.153,-19.4569 288,-38.5463 298.9427,-46.9533 286.6527,-58.395 296,-68.5463 296.6556,-69.2583 297.3473,-69.9365 298.07,-70.5826"/>
<polygon fill="#000000" fill-opacity="0.200000" stroke="#000000" stroke-width="2" stroke-opacity="0.200000" points="297.1619,-72.5224 303.2363,-74.3965 299.6564,-69.1434 297.1619,-72.5224"/>
</g>
<!-- src/module/StoreModule.ts -->
<g id="node9" class="node">
<title>src/module/StoreModule.ts</title>
<g id="a_node9"><a xlink:href="src/module/StoreModule.ts" xlink:title="StoreModule.ts">
<path fill="#ccffcc" stroke="#000000" d="M250,-62.5463C250,-62.5463 185,-62.5463 185,-62.5463 182,-62.5463 179,-59.5463 179,-56.5463 179,-56.5463 179,-50.5463 179,-50.5463 179,-47.5463 182,-44.5463 185,-44.5463 185,-44.5463 250,-44.5463 250,-44.5463 253,-44.5463 256,-47.5463 256,-50.5463 256,-50.5463 256,-56.5463 256,-56.5463 256,-59.5463 253,-62.5463 250,-62.5463"/>
<text text-anchor="middle" x="217.5" y="-51.3463" font-family="Helvetica,sans-Serif" font-size="9.00" fill="#000000">StoreModule.ts</text>
</a>
</g>
</g>
<!-- src/Coriolis.ts&#45;&gt;src/module/StoreModule.ts -->
<g id="edge7" class="edge">
<title>src/Coriolis.ts&#45;&gt;src/module/StoreModule.ts</title>
<path fill="none" stroke="#000000" stroke-width="2" stroke-opacity="0.200000" d="M111.8082,-218.2623C114.6719,-187.5412 125.3462,-89.9199 147,-68.5463 154.0064,-61.6306 163.3646,-57.5488 172.9673,-55.2123"/>
<polygon fill="#000000" fill-opacity="0.200000" stroke="#000000" stroke-width="2" stroke-opacity="0.200000" points="173.5088,-57.2448 178.9592,-53.9733 172.6582,-53.1318 173.5088,-57.2448"/>
</g>
<!-- src/ModuleLoader.ts -->
<g id="node10" class="node">
<title>src/ModuleLoader.ts</title>
<g id="a_node10"><a xlink:href="src/ModuleLoader.ts" xlink:title="ModuleLoader.ts">
<path fill="#ddfeff" stroke="#000000" d="M374,-204.5463C374,-204.5463 302,-204.5463 302,-204.5463 299,-204.5463 296,-201.5463 296,-198.5463 296,-198.5463 296,-192.5463 296,-192.5463 296,-189.5463 299,-186.5463 302,-186.5463 302,-186.5463 374,-186.5463 374,-186.5463 377,-186.5463 380,-189.5463 380,-192.5463 380,-192.5463 380,-198.5463 380,-198.5463 380,-201.5463 377,-204.5463 374,-204.5463"/>
<text text-anchor="middle" x="338" y="-193.3463" font-family="Helvetica,sans-Serif" font-size="9.00" fill="#000000">ModuleLoader.ts</text>
</a>
</g>
</g>
<!-- src/Coriolis.ts&#45;&gt;src/ModuleLoader.ts -->
<g id="edge8" class="edge">
<title>src/Coriolis.ts&#45;&gt;src/ModuleLoader.ts</title>
<path fill="none" stroke="#000000" stroke-width="2" stroke-opacity="0.200000" d="M118.5144,-218.5431C125.1561,-211.336 135.5473,-201.7607 147,-197.5463 193.2316,-180.5339 250.1236,-182.5921 289.7364,-187.3167"/>
<polygon fill="#000000" fill-opacity="0.200000" stroke="#000000" stroke-width="2" stroke-opacity="0.200000" points="289.7265,-189.4319 295.9414,-188.0954 290.2495,-185.2646 289.7265,-189.4319"/>
</g>
<!-- src/PostMessageChannel.ts -->
<g id="node11" class="node">
<title>src/PostMessageChannel.ts</title>
<g id="a_node11"><a xlink:href="src/PostMessageChannel.ts" xlink:title="PostMessageChannel.ts">
<path fill="#ddfeff" stroke="#000000" d="M591,-185.5463C591,-185.5463 489,-185.5463 489,-185.5463 486,-185.5463 483,-182.5463 483,-179.5463 483,-179.5463 483,-173.5463 483,-173.5463 483,-170.5463 486,-167.5463 489,-167.5463 489,-167.5463 591,-167.5463 591,-167.5463 594,-167.5463 597,-170.5463 597,-173.5463 597,-173.5463 597,-179.5463 597,-179.5463 597,-182.5463 594,-185.5463 591,-185.5463"/>
<text text-anchor="middle" x="540" y="-174.3463" font-family="Helvetica,sans-Serif" font-size="9.00" fill="#000000">PostMessageChannel.ts</text>
</a>
</g>
</g>
<!-- src/Coriolis.ts&#45;&gt;src/PostMessageChannel.ts -->
<g id="edge9" class="edge">
<title>src/Coriolis.ts&#45;&gt;src/PostMessageChannel.ts</title>
<path fill="none" stroke="#000000" stroke-width="2" stroke-opacity="0.200000" d="M123.6533,-218.4322C130.2654,-214.2275 138.6946,-209.6984 147,-207.5463 207.6631,-191.8269 226.3389,-196.365 288,-207.5463 291.7364,-208.2238 292.2636,-209.8688 296,-210.5463 335.3581,-217.6833 346.2359,-214.8836 386,-210.5463 426.3174,-206.1486 471.5366,-195.4571 502.4871,-187.2274"/>
<polygon fill="#000000" fill-opacity="0.200000" stroke="#000000" stroke-width="2" stroke-opacity="0.200000" points="503.2317,-189.2019 508.4813,-185.6169 502.1419,-185.1458 503.2317,-189.2019"/>
</g>
<!-- src/serializer/ArrayBufferSerializer.ts -->
<g id="node12" class="node">
<title>src/serializer/ArrayBufferSerializer.ts</title>
<g id="a_node12"><a xlink:href="src/serializer/ArrayBufferSerializer.ts" xlink:title="ArrayBufferSerializer.ts">
<path fill="#ccccff" stroke="#000000" d="M266,-266.5463C266,-266.5463 169,-266.5463 169,-266.5463 166,-266.5463 163,-263.5463 163,-260.5463 163,-260.5463 163,-254.5463 163,-254.5463 163,-251.5463 166,-248.5463 169,-248.5463 169,-248.5463 266,-248.5463 266,-248.5463 269,-248.5463 272,-251.5463 272,-254.5463 272,-254.5463 272,-260.5463 272,-260.5463 272,-263.5463 269,-266.5463 266,-266.5463"/>
<text text-anchor="middle" x="217.5" y="-255.3463" font-family="Helvetica,sans-Serif" font-size="9.00" fill="#000000">ArrayBufferSerializer.ts</text>
</a>
</g>
</g>
<!-- src/Coriolis.ts&#45;&gt;src/serializer/ArrayBufferSerializer.ts -->
<g id="edge10" class="edge">
<title>src/Coriolis.ts&#45;&gt;src/serializer/ArrayBufferSerializer.ts</title>
<path fill="none" stroke="#000000" stroke-width="2" stroke-opacity="0.200000" d="M130.9394,-236.625C136.1011,-238.7609 141.6995,-240.8938 147,-242.5463 152.1762,-244.1601 157.6197,-245.6572 163.0919,-247.0311"/>
<polygon fill="#000000" fill-opacity="0.200000" stroke="#000000" stroke-width="2" stroke-opacity="0.200000" points="162.7035,-249.0977 169.0297,-248.4731 163.6948,-245.0164 162.7035,-249.0977"/>
</g>
<!-- src/serializer/DateSerializer.ts -->
<g id="node13" class="node">
<title>src/serializer/DateSerializer.ts</title>
<g id="a_node13"><a xlink:href="src/serializer/DateSerializer.ts" xlink:title="DateSerializer.ts">
<path fill="#ccccff" stroke="#000000" d="M253,-236.5463C253,-236.5463 182,-236.5463 182,-236.5463 179,-236.5463 176,-233.5463 176,-230.5463 176,-230.5463 176,-224.5463 176,-224.5463 176,-221.5463 179,-218.5463 182,-218.5463 182,-218.5463 253,-218.5463 253,-218.5463 256,-218.5463 259,-221.5463 259,-224.5463 259,-224.5463 259,-230.5463 259,-230.5463 259,-233.5463 256,-236.5463 253,-236.5463"/>
<text text-anchor="middle" x="217.5" y="-225.3463" font-family="Helvetica,sans-Serif" font-size="9.00" fill="#000000">DateSerializer.ts</text>
</a>
</g>
</g>
<!-- src/Coriolis.ts&#45;&gt;src/serializer/DateSerializer.ts -->
<g id="edge11" class="edge">
<title>src/Coriolis.ts&#45;&gt;src/serializer/DateSerializer.ts</title>
<path fill="none" stroke="#000000" stroke-width="2" stroke-opacity="0.200000" d="M139.2604,-227.5463C148.6359,-227.5463 159.3479,-227.5463 169.7743,-227.5463"/>
<polygon fill="#000000" fill-opacity="0.200000" stroke="#000000" stroke-width="2" stroke-opacity="0.200000" points="169.868,-229.6464 175.8679,-227.5463 169.8679,-225.4464 169.868,-229.6464"/>
</g>
<!-- src/serializer/DomRectSerializer.ts -->
<g id="node14" class="node">
<title>src/serializer/DomRectSerializer.ts</title>
<g id="a_node14"><a xlink:href="src/serializer/DomRectSerializer.ts" xlink:title="DomRectSerializer.ts">
<path fill="#ccccff" stroke="#000000" d="M262,-446.5463C262,-446.5463 173,-446.5463 173,-446.5463 170,-446.5463 167,-443.5463 167,-440.5463 167,-440.5463 167,-434.5463 167,-434.5463 167,-431.5463 170,-428.5463 173,-428.5463 173,-428.5463 262,-428.5463 262,-428.5463 265,-428.5463 268,-431.5463 268,-434.5463 268,-434.5463 268,-440.5463 268,-440.5463 268,-443.5463 265,-446.5463 262,-446.5463"/>
<text text-anchor="middle" x="217.5" y="-435.3463" font-family="Helvetica,sans-Serif" font-size="9.00" fill="#000000">DomRectSerializer.ts</text>
</a>
</g>
</g>
<!-- src/Coriolis.ts&#45;&gt;src/serializer/DomRectSerializer.ts -->
<g id="edge12" class="edge">
<title>src/Coriolis.ts&#45;&gt;src/serializer/DomRectSerializer.ts</title>
<path fill="none" stroke="#000000" stroke-width="2" stroke-opacity="0.200000" d="M111.391,-236.8961C113.0541,-272.0313 120.7077,-395.5322 147,-422.5463 150.9739,-426.6293 155.7643,-429.7344 160.9552,-432.0803"/>
<polygon fill="#000000" fill-opacity="0.200000" stroke="#000000" stroke-width="2" stroke-opacity="0.200000" points="160.3725,-434.1073 166.7252,-434.3382 161.9031,-430.1961 160.3725,-434.1073"/>
</g>
<!-- src/serializer/ErrorSerializer.ts -->
<g id="node15" class="node">
<title>src/serializer/ErrorSerializer.ts</title>
<g id="a_node15"><a xlink:href="src/serializer/ErrorSerializer.ts" xlink:title="ErrorSerializer.ts">
<path fill="#ccccff" stroke="#000000" d="M253.5,-416.5463C253.5,-416.5463 181.5,-416.5463 181.5,-416.5463 178.5,-416.5463 175.5,-413.5463 175.5,-410.5463 175.5,-410.5463 175.5,-404.5463 175.5,-404.5463 175.5,-401.5463 178.5,-398.5463 181.5,-398.5463 181.5,-398.5463 253.5,-398.5463 253.5,-398.5463 256.5,-398.5463 259.5,-401.5463 259.5,-404.5463 259.5,-404.5463 259.5,-410.5463 259.5,-410.5463 259.5,-413.5463 256.5,-416.5463 253.5,-416.5463"/>
<text text-anchor="middle" x="217.5" y="-405.3463" font-family="Helvetica,sans-Serif" font-size="9.00" fill="#000000">ErrorSerializer.ts</text>
</a>
</g>
</g>
<!-- src/Coriolis.ts&#45;&gt;src/serializer/ErrorSerializer.ts -->
<g id="edge13" class="edge">
<title>src/Coriolis.ts&#45;&gt;src/serializer/ErrorSerializer.ts</title>
<path fill="none" stroke="#000000" stroke-width="2" stroke-opacity="0.200000" d="M111.7179,-236.7367C114.3559,-268.1015 124.5514,-370.2136 147,-392.5463 153.1267,-398.6414 161.0787,-402.5396 169.4252,-404.9826"/>
<polygon fill="#000000" fill-opacity="0.200000" stroke="#000000" stroke-width="2" stroke-opacity="0.200000" points="168.9176,-407.0203 175.2489,-406.4505 169.9442,-402.9476 168.9176,-407.0203"/>
</g>
<!-- src/serializer/KeyboardEventSerializer.ts -->
<g id="node16" class="node">
<title>src/serializer/KeyboardEventSerializer.ts</title>
<g id="a_node16"><a xlink:href="src/serializer/KeyboardEventSerializer.ts" xlink:title="KeyboardEventSerializer.ts">
<path fill="#ccccff" stroke="#000000" d="M274,-386.5463C274,-386.5463 161,-386.5463 161,-386.5463 158,-386.5463 155,-383.5463 155,-380.5463 155,-380.5463 155,-374.5463 155,-374.5463 155,-371.5463 158,-368.5463 161,-368.5463 161,-368.5463 274,-368.5463 274,-368.5463 277,-368.5463 280,-371.5463 280,-374.5463 280,-374.5463 280,-380.5463 280,-380.5463 280,-383.5463 277,-386.5463 274,-386.5463"/>
<text text-anchor="middle" x="217.5" y="-375.3463" font-family="Helvetica,sans-Serif" font-size="9.00" fill="#000000">KeyboardEventSerializer.ts</text>
</a>
</g>
</g>
<!-- src/Coriolis.ts&#45;&gt;src/serializer/KeyboardEventSerializer.ts -->
<g id="edge14" class="edge">
<title>src/Coriolis.ts&#45;&gt;src/serializer/KeyboardEventSerializer.ts</title>
<path fill="none" stroke="#000000" stroke-width="2" stroke-opacity="0.200000" d="M112.1731,-236.5698C115.9046,-263.876 128.3616,-344.8344 147,-362.5463 147.8844,-363.3868 148.8037,-364.185 149.754,-364.9429"/>
<polygon fill="#000000" fill-opacity="0.200000" stroke="#000000" stroke-width="2" stroke-opacity="0.200000" points="148.6184,-366.7109 154.7451,-368.4063 151.0129,-363.2603 148.6184,-366.7109"/>
</g>
<!-- src/serializer/MapSerializer.ts -->
<g id="node17" class="node">
<title>src/serializer/MapSerializer.ts</title>
<g id="a_node17"><a xlink:href="src/serializer/MapSerializer.ts" xlink:title="MapSerializer.ts">
<path fill="#ccccff" stroke="#000000" d="M252,-356.5463C252,-356.5463 183,-356.5463 183,-356.5463 180,-356.5463 177,-353.5463 177,-350.5463 177,-350.5463 177,-344.5463 177,-344.5463 177,-341.5463 180,-338.5463 183,-338.5463 183,-338.5463 252,-338.5463 252,-338.5463 255,-338.5463 258,-341.5463 258,-344.5463 258,-344.5463 258,-350.5463 258,-350.5463 258,-353.5463 255,-356.5463 252,-356.5463"/>
<text text-anchor="middle" x="217.5" y="-345.3463" font-family="Helvetica,sans-Serif" font-size="9.00" fill="#000000">MapSerializer.ts</text>
</a>
</g>
</g>
<!-- src/Coriolis.ts&#45;&gt;src/serializer/MapSerializer.ts -->
<g id="edge15" class="edge">
<title>src/Coriolis.ts&#45;&gt;src/serializer/MapSerializer.ts</title>
<path fill="none" stroke="#000000" stroke-width="2" stroke-opacity="0.200000" d="M112.9568,-236.828C118.0245,-259.9956 132.2161,-319.4466 147,-332.5463 153.6966,-338.48 162.1519,-342.2692 170.8613,-344.6491"/>
<polygon fill="#000000" fill-opacity="0.200000" stroke="#000000" stroke-width="2" stroke-opacity="0.200000" points="170.5906,-346.7429 176.9129,-346.0805 171.5575,-342.6557 170.5906,-346.7429"/>
</g>
<!-- src/serializer/MouseEventSerializer.ts -->
<g id="node18" class="node">
<title>src/serializer/MouseEventSerializer.ts</title>
<g id="a_node18"><a xlink:href="src/serializer/MouseEventSerializer.ts" xlink:title="MouseEventSerializer.ts">
<path fill="#ccccff" stroke="#000000" d="M268.5,-326.5463C268.5,-326.5463 166.5,-326.5463 166.5,-326.5463 163.5,-326.5463 160.5,-323.5463 160.5,-320.5463 160.5,-320.5463 160.5,-314.5463 160.5,-314.5463 160.5,-311.5463 163.5,-308.5463 166.5,-308.5463 166.5,-308.5463 268.5,-308.5463 268.5,-308.5463 271.5,-308.5463 274.5,-311.5463 274.5,-314.5463 274.5,-314.5463 274.5,-320.5463 274.5,-320.5463 274.5,-323.5463 271.5,-326.5463 268.5,-326.5463"/>
<text text-anchor="middle" x="217.5" y="-315.3463" font-family="Helvetica,sans-Serif" font-size="9.00" fill="#000000">MouseEventSerializer.ts</text>
</a>
</g>
</g>
<!-- src/Coriolis.ts&#45;&gt;src/serializer/MouseEventSerializer.ts -->
<g id="edge16" class="edge">
<title>src/Coriolis.ts&#45;&gt;src/serializer/MouseEventSerializer.ts</title>
<path fill="none" stroke="#000000" stroke-width="2" stroke-opacity="0.200000" d="M112.6436,-236.5482C116.0477,-252.4857 125.4302,-285.5815 147,-302.5463 149.3944,-304.4295 151.971,-306.0902 154.6733,-307.5537"/>
<polygon fill="#000000" fill-opacity="0.200000" stroke="#000000" stroke-width="2" stroke-opacity="0.200000" points="154.0607,-309.5888 160.379,-310.2888 155.8763,-305.8015 154.0607,-309.5888"/>
</g>
<!-- src/serializer/SetSerializer.ts -->
<g id="node19" class="node">
<title>src/serializer/SetSerializer.ts</title>
<g id="a_node19"><a xlink:href="src/serializer/SetSerializer.ts" xlink:title="SetSerializer.ts">
<path fill="#ccccff" stroke="#000000" d="M250,-296.5463C250,-296.5463 185,-296.5463 185,-296.5463 182,-296.5463 179,-293.5463 179,-290.5463 179,-290.5463 179,-284.5463 179,-284.5463 179,-281.5463 182,-278.5463 185,-278.5463 185,-278.5463 250,-278.5463 250,-278.5463 253,-278.5463 256,-281.5463 256,-284.5463 256,-284.5463 256,-290.5463 256,-290.5463 256,-293.5463 253,-296.5463 250,-296.5463"/>
<text text-anchor="middle" x="217.5" y="-285.3463" font-family="Helvetica,sans-Serif" font-size="9.00" fill="#000000">SetSerializer.ts</text>
</a>
</g>
</g>
<!-- src/Coriolis.ts&#45;&gt;src/serializer/SetSerializer.ts -->
<g id="edge17" class="edge">
<title>src/Coriolis.ts&#45;&gt;src/serializer/SetSerializer.ts</title>
<path fill="none" stroke="#000000" stroke-width="2" stroke-opacity="0.200000" d="M115.7664,-236.7139C121.6619,-247.0984 132.6957,-263.7201 147,-272.5463 154.7749,-277.3437 163.8491,-280.6247 172.8491,-282.8641"/>
<polygon fill="#000000" fill-opacity="0.200000" stroke="#000000" stroke-width="2" stroke-opacity="0.200000" points="172.4235,-284.9208 178.7383,-284.1908 173.3466,-280.8235 172.4235,-284.9208"/>
</g>
<!-- src/SerializerBase.ts -->
<g id="node20" class="node">
<title>src/SerializerBase.ts</title>
<g id="a_node20"><a xlink:href="src/SerializerBase.ts" xlink:title="SerializerBase.ts">
<path fill="#ddfeff" stroke="#000000" d="M374,-356.5463C374,-356.5463 302,-356.5463 302,-356.5463 299,-356.5463 296,-353.5463 296,-350.5463 296,-350.5463 296,-344.5463 296,-344.5463 296,-341.5463 299,-338.5463 302,-338.5463 302,-338.5463 374,-338.5463 374,-338.5463 377,-338.5463 380,-341.5463 380,-344.5463 380,-344.5463 380,-350.5463 380,-350.5463 380,-353.5463 377,-356.5463 374,-356.5463"/>
<text text-anchor="middle" x="338" y="-345.3463" font-family="Helvetica,sans-Serif" font-size="9.00" fill="#000000">SerializerBase.ts</text>
</a>
</g>
</g>
<!-- src/DataSerializer.ts&#45;&gt;src/SerializerBase.ts -->
<g id="edge18" class="edge">
<title>src/DataSerializer.ts&#45;&gt;src/SerializerBase.ts</title>
<path fill="none" stroke="#0000ff" stroke-width="2" stroke-opacity="0.466667" d="M259.3273,-488.1936C269.6114,-486.0975 279.9641,-482.2766 288,-475.5463 322.7337,-446.4555 333.45,-390.0868 336.6681,-362.9195"/>
<polygon fill="#0000ff" fill-opacity="0.466667" stroke="#0000ff" stroke-width="2" stroke-opacity="0.466667" points="338.7858,-362.8652 337.3348,-356.6761 334.6095,-362.4192 338.7858,-362.8652"/>
</g>
<!-- src/module/ContentModule.ts&#45;&gt;src/module/EventModule.ts -->
<g id="edge27" class="edge">
<title>src/module/ContentModule.ts&#45;&gt;src/module/EventModule.ts</title>
<path fill="none" stroke="#000000" stroke-width="2" stroke-opacity="0.200000" d="M261.2546,-74.8188C270.1371,-72.8838 279.3928,-70.7491 288,-68.5463 292.9853,-67.2704 298.2189,-65.8226 303.3454,-64.3419"/>
<polygon fill="#000000" fill-opacity="0.200000" stroke="#000000" stroke-width="2" stroke-opacity="0.200000" points="304.1269,-66.3012 309.2929,-62.5968 302.9444,-62.2711 304.1269,-66.3012"/>
</g>
<!-- src/module/ContentModule.ts&#45;&gt;src/module/QueryModule.ts -->
<g id="edge28" class="edge">
<title>src/module/ContentModule.ts&#45;&gt;src/module/QueryModule.ts</title>
<path fill="none" stroke="#000000" stroke-width="2" stroke-opacity="0.200000" d="M261.0033,-83.5463C270.9405,-83.5463 281.5379,-83.5463 291.5917,-83.5463"/>
<polygon fill="#000000" fill-opacity="0.200000" stroke="#000000" stroke-width="2" stroke-opacity="0.200000" points="291.7706,-85.6464 297.7706,-83.5463 291.7705,-81.4464 291.7706,-85.6464"/>
</g>
<!-- src/ModuleBase.ts -->
<g id="node21" class="node">
<title>src/ModuleBase.ts</title>
<g id="a_node21"><a xlink:href="src/ModuleBase.ts" xlink:title="ModuleBase.ts">
<path fill="#ddfeff" stroke="#000000" d="M464,-134.5463C464,-134.5463 400,-134.5463 400,-134.5463 397,-134.5463 394,-131.5463 394,-128.5463 394,-128.5463 394,-122.5463 394,-122.5463 394,-119.5463 397,-116.5463 400,-116.5463 400,-116.5463 464,-116.5463 464,-116.5463 467,-116.5463 470,-119.5463 470,-122.5463 470,-122.5463 470,-128.5463 470,-128.5463 470,-131.5463 467,-134.5463 464,-134.5463"/>
<text text-anchor="middle" x="432" y="-123.3463" font-family="Helvetica,sans-Serif" font-size="9.00" fill="#000000">ModuleBase.ts</text>
</a>
</g>
</g>
<!-- src/module/ContentModule.ts&#45;&gt;src/ModuleBase.ts -->
<g id="edge26" class="edge">
<title>src/module/ContentModule.ts&#45;&gt;src/ModuleBase.ts</title>
<path fill="none" stroke="#007700" stroke-width="2" stroke-opacity="0.466667" d="M261.218,-87.6846C270.5692,-89.9419 280.0233,-93.3677 288,-98.5463 293.0703,-101.838 290.7829,-106.4926 296,-109.5463 311.1626,-118.4213 354.1499,-122.3817 387.7787,-124.144"/>
<polygon fill="#007700" fill-opacity="0.466667" stroke="#007700" stroke-width="2" stroke-opacity="0.466667" points="387.8439,-126.2497 393.9402,-124.4482 388.051,-122.0548 387.8439,-126.2497"/>
</g>
<!-- src/module/EventModule.ts&#45;&gt;node_modules/eventemitter3 -->
<g id="edge30" class="edge">
<title>src/module/EventModule.ts&#45;&gt;node_modules/eventemitter3</title>
<path fill="none" stroke="#990000" stroke-opacity="0.466667" d="M377.5026,-53.2661C430.142,-53.7234 525.8473,-57.4649 605,-76.5463 614.1522,-78.7526 623.8032,-82.3245 632.2456,-85.9017"/>
<polygon fill="#990000" fill-opacity="0.466667" stroke="#990000" stroke-opacity="0.466667" points="631.5374,-87.8839 637.8762,-88.3623 633.2193,-84.0353 631.5374,-87.8839"/>
</g>
<!-- src/module/EventModule.ts&#45;&gt;src/ModuleBase.ts -->
<g id="edge29" class="edge">
<title>src/module/EventModule.ts&#45;&gt;src/ModuleBase.ts</title>
<path fill="none" stroke="#007700" stroke-width="2" stroke-opacity="0.466667" d="M375.2039,-62.7074C379.0022,-64.3561 382.6793,-66.2874 386,-68.5463 394.6152,-74.4067 411.0502,-96.1213 421.7633,-110.991"/>
<polygon fill="#007700" fill-opacity="0.466667" stroke="#007700" stroke-width="2" stroke-opacity="0.466667" points="420.2294,-112.4565 425.4262,-116.1176 423.6467,-110.0148 420.2294,-112.4565"/>
</g>
<!-- src/module/LoaderUtilModule.ts&#45;&gt;src/ModuleBase.ts -->
<g id="edge31" class="edge">
<title>src/module/LoaderUtilModule.ts&#45;&gt;src/ModuleBase.ts</title>
<path fill="none" stroke="#007700" stroke-width="2" stroke-opacity="0.466667" d="M266.4097,-120.6362C276.1909,-121.8114 286.407,-122.8669 296,-123.5463 326.5291,-125.7085 361.0056,-126.1939 387.607,-126.1463"/>
<polygon fill="#007700" fill-opacity="0.466667" stroke="#007700" stroke-width="2" stroke-opacity="0.466667" points="387.8541,-128.2455 393.8469,-126.1251 387.8398,-124.0456 387.8541,-128.2455"/>
</g>
<!-- src/module/PluginModule.ts&#45;&gt;src/ModuleBase.ts -->
<g id="edge32" class="edge">
<title>src/module/PluginModule.ts&#45;&gt;src/ModuleBase.ts</title>
<path fill="none" stroke="#007700" stroke-width="2" stroke-opacity="0.466667" d="M258.098,-140.1395C294.9534,-137.0467 349.2066,-132.494 387.2898,-129.2982"/>
<polygon fill="#007700" fill-opacity="0.466667" stroke="#007700" stroke-width="2" stroke-opacity="0.466667" points="387.9271,-131.3522 393.7304,-128.7577 387.5758,-127.1669 387.9271,-131.3522"/>
</g>
<!-- src/module/QueryModule.ts&#45;&gt;src/ModuleBase.ts -->
<g id="edge33" class="edge">
<title>src/module/QueryModule.ts&#45;&gt;src/ModuleBase.ts</title>
<path fill="none" stroke="#007700" stroke-width="2" stroke-opacity="0.466667" d="M375.587,-92.557C379.1566,-93.7605 382.6795,-95.0893 386,-96.5463 395.8337,-100.8613 406.0105,-107.0672 414.2839,-112.6318"/>
<polygon fill="#007700" fill-opacity="0.466667" stroke="#007700" stroke-width="2" stroke-opacity="0.466667" points="413.5479,-114.6749 419.68,-116.3506 415.9313,-111.2167 413.5479,-114.6749"/>
</g>
<!-- src/module/StoreModule.ts&#45;&gt;node_modules/eventemitter3 -->
<g id="edge35" class="edge">
<title>src/module/StoreModule.ts&#45;&gt;node_modules/eventemitter3</title>
<path fill="none" stroke="#990000" stroke-opacity="0.466667" d="M256.1555,-44.5062C327.9818,-29.6474 485.5666,-6.245 605,-54.5463 620.5899,-60.8512 634.9754,-73.721 644.5565,-83.7457"/>
<polygon fill="#990000" fill-opacity="0.466667" stroke="#990000" stroke-opacity="0.466667" points="643.2426,-85.418 648.8582,-88.3971 646.3261,-82.5663 643.2426,-85.418"/>
</g>
<!-- src/module/StoreModule.ts&#45;&gt;src/ModuleBase.ts -->
<g id="edge34" class="edge">
<title>src/module/StoreModule.ts&#45;&gt;src/ModuleBase.ts</title>
<path fill="none" stroke="#007700" stroke-width="2" stroke-opacity="0.466667" d="M256.221,-54.2298C267.7031,-56.2687 279.4733,-60.4434 288,-68.5463 298.003,-78.0521 285.6381,-89.433 296,-98.5463 311.1509,-111.8715 366.3266,-106.0667 386,-110.5463 390.9449,-111.6723 396.116,-113.1014 401.1314,-114.6282"/>
<polygon fill="#007700" fill-opacity="0.466667" stroke="#007700" stroke-width="2" stroke-opacity="0.466667" points="400.5711,-116.6533 406.9248,-116.4529 401.8329,-112.6473 400.5711,-116.6533"/>
</g>
<!-- src/ModuleLoader.ts&#45;&gt;node_modules/eventemitter3 -->
<g id="edge23" class="edge">
<title>src/ModuleLoader.ts&#45;&gt;node_modules/eventemitter3</title>
<path fill="none" stroke="#990000" stroke-opacity="0.466667" d="M380.2563,-186.7365C382.3801,-185.2565 384.3231,-183.5387 386,-181.5463 396.2238,-169.3984 382.4263,-121.4159 394,-110.5463 424.8514,-81.5716 548.8398,-87.7642 614.7763,-93.3707"/>
<polygon fill="#990000" fill-opacity="0.466667" stroke="#990000" stroke-opacity="0.466667" points="614.8114,-95.4816 620.971,-93.9102 615.1759,-91.2974 614.8114,-95.4816"/>
</g>
<!-- src/ModuleLoader.ts&#45;&gt;src/PostMessageChannel.ts -->
<g id="edge22" class="edge">
<title>src/ModuleLoader.ts&#45;&gt;src/PostMessageChannel.ts</title>
<path fill="none" stroke="#000000" stroke-width="2" stroke-opacity="0.200000" d="M380.3458,-191.5633C408.2197,-188.9415 445.2146,-185.4618 476.5736,-182.5122"/>
<polygon fill="#000000" fill-opacity="0.200000" stroke="#000000" stroke-width="2" stroke-opacity="0.200000" points="476.9889,-184.5824 482.7659,-181.9297 476.5955,-180.4009 476.9889,-184.5824"/>
</g>
<!-- src/ModuleLoader.ts&#45;&gt;src/ModuleBase.ts -->
<g id="edge21" class="edge">
<title>src/ModuleLoader.ts&#45;&gt;src/ModuleBase.ts</title>
<path fill="none" stroke="#007700" stroke-width="2" stroke-opacity="0.466667" d="M377.1523,-186.3335C380.2539,-184.9498 383.2471,-183.3636 386,-181.5463 402.026,-170.9672 415.2933,-153.0975 423.395,-140.3908"/>
<polygon fill="#007700" fill-opacity="0.466667" stroke="#007700" stroke-width="2" stroke-opacity="0.466667" points="425.382,-141.1696 426.7452,-134.9606 421.8075,-138.9642 425.382,-141.1696"/>
</g>
<!-- src/PostMessageChannel.ts&#45;&gt;node_modules/eventemitter3 -->
<g id="edge24" class="edge">
<title>src/PostMessageChannel.ts&#45;&gt;node_modules/eventemitter3</title>
<path fill="none" stroke="#990000" stroke-opacity="0.466667" d="M554.5916,-167.4072C567.8544,-159.0322 587.9038,-146.2007 605,-134.5463 616.4647,-126.7309 629.123,-117.6431 639.021,-110.4299"/>
<polygon fill="#990000" fill-opacity="0.466667" stroke="#990000" stroke-opacity="0.466667" points="640.32,-112.0816 643.9245,-106.8454 637.8413,-108.6909 640.32,-112.0816"/>
</g>
<!-- src/serializer/ArrayBufferSerializer.ts&#45;&gt;src/SerializerBase.ts -->
<g id="edge36" class="edge">
<title>src/serializer/ArrayBufferSerializer.ts&#45;&gt;src/SerializerBase.ts</title>
<path fill="none" stroke="#0000ff" stroke-width="2" stroke-opacity="0.466667" d="M272.0125,-264.6116C277.6774,-266.6484 283.1334,-269.2438 288,-272.5463 309.9123,-287.4159 324.7028,-315.3977 332.2125,-332.6601"/>
<polygon fill="#0000ff" fill-opacity="0.466667" stroke="#0000ff" stroke-width="2" stroke-opacity="0.466667" points="330.398,-333.7647 334.6495,-338.4907 334.2732,-332.145 330.398,-333.7647"/>
</g>
<!-- src/serializer/DateSerializer.ts&#45;&gt;src/SerializerBase.ts -->
<g id="edge37" class="edge">
<title>src/serializer/DateSerializer.ts&#45;&gt;src/SerializerBase.ts</title>
<path fill="none" stroke="#0000ff" stroke-width="2" stroke-opacity="0.466667" d="M259.0346,-229.9437C269.3209,-232.1822 279.748,-236.0353 288,-242.5463 316.977,-265.4097 330.0661,-309.1643 335.1819,-332.3136"/>
<polygon fill="#0000ff" fill-opacity="0.466667" stroke="#0000ff" stroke-width="2" stroke-opacity="0.466667" points="333.1413,-332.8158 336.4199,-338.262 337.2532,-331.9599 333.1413,-332.8158"/>
</g>
<!-- src/serializer/DomRectSerializer.ts&#45;&gt;src/SerializerBase.ts -->
<g id="edge38" class="edge">
<title>src/serializer/DomRectSerializer.ts&#45;&gt;src/SerializerBase.ts</title>
<path fill="none" stroke="#0000ff" stroke-width="2" stroke-opacity="0.466667" d="M268.0055,-431.8211C275.0912,-429.6204 281.9944,-426.6217 288,-422.5463 309.9123,-407.6767 324.7028,-379.6949 332.2125,-362.4325"/>
<polygon fill="#0000ff" fill-opacity="0.466667" stroke="#0000ff" stroke-width="2" stroke-opacity="0.466667" points="334.2732,-362.9476 334.6495,-356.6019 330.398,-361.3279 334.2732,-362.9476"/>
</g>
<!-- src/serializer/ErrorSerializer.ts&#45;&gt;src/SerializerBase.ts -->
<g id="edge39" class="edge">
<title>src/serializer/ErrorSerializer.ts&#45;&gt;src/SerializerBase.ts</title>
<path fill="none" stroke="#0000ff" stroke-width="2" stroke-opacity="0.466667" d="M259.7401,-402.3021C269.3612,-400.1008 279.3032,-396.9774 288,-392.5463 303.0232,-384.8918 317.0041,-371.5585 326.3401,-361.3863"/>
<polygon fill="#0000ff" fill-opacity="0.466667" stroke="#0000ff" stroke-width="2" stroke-opacity="0.466667" points="328.1068,-362.5605 330.5343,-356.6853 324.9729,-359.7643 328.1068,-362.5605"/>
</g>
<!-- src/serializer/KeyboardEventSerializer.ts&#45;&gt;src/SerializerBase.ts -->
<g id="edge40" class="edge">
<title>src/serializer/KeyboardEventSerializer.ts&#45;&gt;src/SerializerBase.ts</title>
<path fill="none" stroke="#0000ff" stroke-width="2" stroke-opacity="0.466667" d="M262.7592,-368.4899C271.1779,-366.6431 279.8777,-364.625 288,-362.5463 292.9853,-361.2704 298.2189,-359.8226 303.3454,-358.3419"/>
<polygon fill="#0000ff" fill-opacity="0.466667" stroke="#0000ff" stroke-width="2" stroke-opacity="0.466667" points="304.1269,-360.3012 309.2929,-356.5968 302.9444,-356.2711 304.1269,-360.3012"/>
</g>
<!-- src/serializer/MapSerializer.ts&#45;&gt;src/SerializerBase.ts -->
<g id="edge41" class="edge">
<title>src/serializer/MapSerializer.ts&#45;&gt;src/SerializerBase.ts</title>
<path fill="none" stroke="#0000ff" stroke-width="2" stroke-opacity="0.466667" d="M258.2958,-347.5463C268.3411,-347.5463 279.1946,-347.5463 289.5624,-347.5463"/>
<polygon fill="#0000ff" fill-opacity="0.466667" stroke="#0000ff" stroke-width="2" stroke-opacity="0.466667" points="289.601,-349.6464 295.6009,-347.5463 289.6009,-345.4464 289.601,-349.6464"/>
</g>
<!-- src/serializer/MouseEventSerializer.ts&#45;&gt;src/SerializerBase.ts -->
<g id="edge42" class="edge">
<title>src/serializer/MouseEventSerializer.ts&#45;&gt;src/SerializerBase.ts</title>
<path fill="none" stroke="#0000ff" stroke-width="2" stroke-opacity="0.466667" d="M262.7592,-326.6027C271.1779,-328.4495 279.8777,-330.4676 288,-332.5463 292.9853,-333.8222 298.2189,-335.27 303.3454,-336.7507"/>
<polygon fill="#0000ff" fill-opacity="0.466667" stroke="#0000ff" stroke-width="2" stroke-opacity="0.466667" points="302.9444,-338.8215 309.2929,-338.4958 304.1269,-334.7914 302.9444,-338.8215"/>
</g>
<!-- src/serializer/SetSerializer.ts&#45;&gt;src/SerializerBase.ts -->
<g id="edge43" class="edge">
<title>src/serializer/SetSerializer.ts&#45;&gt;src/SerializerBase.ts</title>
<path fill="none" stroke="#0000ff" stroke-width="2" stroke-opacity="0.466667" d="M256.0589,-291.9886C266.7915,-294.2124 278.1882,-297.5471 288,-302.5463 303.0232,-310.2008 317.0041,-323.5341 326.3401,-333.7063"/>
<polygon fill="#0000ff" fill-opacity="0.466667" stroke="#0000ff" stroke-width="2" stroke-opacity="0.466667" points="324.9729,-335.3283 330.5343,-338.4073 328.1068,-332.5321 324.9729,-335.3283"/>
</g>
<!-- src/ModuleBase.ts&#45;&gt;node_modules/eventemitter3 -->
<g id="edge20" class="edge">
<title>src/ModuleBase.ts&#45;&gt;node_modules/eventemitter3</title>
<path fill="none" stroke="#990000" stroke-opacity="0.466667" d="M470.2591,-122.5399C505.3957,-119.5479 558.854,-114.4135 605,-107.5463 608.2094,-107.0687 611.5228,-106.5304 614.8493,-105.9575"/>
<polygon fill="#990000" fill-opacity="0.466667" stroke="#990000" stroke-opacity="0.466667" points="615.2911,-108.0119 620.8312,-104.8945 614.5563,-103.8767 615.2911,-108.0119"/>
</g>
<!-- src/ModuleBase.ts&#45;&gt;src/PostMessageChannel.ts -->
<g id="edge19" class="edge">
<title>src/ModuleBase.ts&#45;&gt;src/PostMessageChannel.ts</title>
<path fill="none" stroke="#000000" stroke-width="2" stroke-opacity="0.200000" d="M451.0596,-134.5467C468.8404,-142.9431 495.4784,-155.5222 514.9668,-164.7251"/>
<polygon fill="#000000" fill-opacity="0.200000" stroke="#000000" stroke-width="2" stroke-opacity="0.200000" points="514.4454,-166.8012 520.7676,-167.4644 516.2389,-163.0033 514.4454,-166.8012"/>
</g>
<!-- src/index.ts -->
<g id="node22" class="node">
<title>src/index.ts</title>
<g id="a_node22"><a xlink:href="src/index.ts" xlink:title="index.ts">
<path fill="#ddfeff" stroke="#000000" d="M64,-236.5463C64,-236.5463 22,-236.5463 22,-236.5463 19,-236.5463 16,-233.5463 16,-230.5463 16,-230.5463 16,-224.5463 16,-224.5463 16,-221.5463 19,-218.5463 22,-218.5463 22,-218.5463 64,-218.5463 64,-218.5463 67,-218.5463 70,-221.5463 70,-224.5463 70,-224.5463 70,-230.5463 70,-230.5463 70,-233.5463 67,-236.5463 64,-236.5463"/>
<text text-anchor="middle" x="43" y="-225.3463" font-family="Helvetica,sans-Serif" font-size="9.00" fill="#000000">index.ts</text>
</a>
</g>
</g>
<!-- src/index.ts&#45;&gt;src/Coriolis.ts -->
<g id="edge25" class="edge">
<title>src/index.ts&#45;&gt;src/Coriolis.ts</title>
<path fill="none" stroke="#000000" stroke-width="2" stroke-opacity="0.200000" d="M70.2664,-227.5463C72.3356,-227.5463 74.4394,-227.5463 76.5455,-227.5463"/>
<polygon fill="#000000" fill-opacity="0.200000" stroke="#000000" stroke-width="2" stroke-opacity="0.200000" points="76.8387,-229.6464 82.8387,-227.5463 76.8386,-225.4464 76.8387,-229.6464"/>
</g>
</g>
</svg>
